# xmcd CD database file generated by Grip 2.9
# 
# Track frame offsets:
#       182
#       11582
#       23432
#       34307
#       46182
#       56257
#       66557
#       76957
#       88807
#       100182
#       110607
#       121307
#       131582
#       142182
#       152457
# 
# Disc length: 2175 seconds
# 
# Revision: 3
# Processed by: cddbd v1.4b41PL1 Copyright (c) Steve Scherf et al.
# Submitted via: Grip 2.9
# 
DISCID=c2087d0f
DTITLE=Robert Johnson - Robert Johnson CD 2
DYEAR=1900
DGENRE=
TTITLE0=Stones In My Passway 2
TTITLE1=I'm A Steady Rollin' Man 1
TTITLE2=From Four Till Late 1
TTITLE3=Hellhound On My Trail 2
TTITLE4=Little Queen Of Spades 1
TTITLE5=Little Queen Of Spades 2
TTITLE6=Malted Milk 1
TTITLE7=Me And The Devil Blues 1
TTITLE8=Me And The Devil Blues 2
TTITLE9=Stop Breakin' Down Blues 1
TTITLE10=Stop Breakin' Down Blues 2
TTITLE11=Honeymoon Blues 1
TTITLE12=Love In Vain 4
TTITLE13=Milkcow's Calf Blues 2
TTITLE14=Milkcow'S Calf Blues 3
EXTD=
EXTT0=
EXTT1=
EXTT2=
EXTT3=
EXTT4=
EXTT5=
EXTT6=
EXTT7=
EXTT8=
EXTT9=
EXTT10=
EXTT11=
EXTT12=
EXTT13=
EXTT14=
PLAYORDER=
